<?xml version="1.0" encoding="UTF-8" standalone="no"?>
<!DOCTYPE svg  PUBLIC '-//W3C//DTD SVG 1.1//EN'  'http://www.w3.org/Graphics/SVG/1.1/DTD/svg11.dtd'>
<svg version="1.1" xmlns="http://www.w3.org/2000/svg">
<defs>
<font id="LucidaGrande-Bold" horiz-adv-x="1308">
<font-face panose-1="0 0 0 0 0 0 0 0 0 0" x-height="1098" underline-thickness="100" cap-height="1480" units-per-em="2048" unicode-range="U+0020-FFF0" descent="-410" font-family="Lucida Grande" ascent="1638" bbox="-541 -432 1888 1936" font-weight="700" underline-position="-351"/>
<missing-glyph/>
<glyph unicode=" " horiz-adv-x="653" glyph-name="space"/>
<glyph unicode="!" d="M222 419l-49 765v296h296v-296l-49 -765h-198zM173 0v247h296v-247h-296z" horiz-adv-x="642" glyph-name="exclam"/>
<glyph unicode='&quot;' d="M592 987l-49 592h296l-61 -592h-186zM148 987l-49 592h296l-62 -592h-185z" horiz-adv-x="925" glyph-name="quotedbl"/>
<glyph unicode="#" d="M481 574h263l83 333h-262zM185 0l107 426h-274l29 148h282l83 333h-298l29 148h306l107 425h152l-106 -425h262l106 425h153l-106 -425h273l-29 -148h-281l-84 -333h299l-30 -148h-306l-106 -426h-153l107 426h-263l-106 -426h-153z" glyph-name="numbersign"/>
<glyph unicode="$" d="M617 942v356q-138 -46 -138 -164q0 -104 138 -192zM716 197q143 45 143 176q0 100 -143 202v-378zM586 -160v164q-167 0 -405 74v218q223 -101 405 -111v475l-51 35q-184 124 -248 209.5t-64 207.5q0 149 97.5 248t265.5 119v162h161v-162q157 -8 318 -63v-201 q-164 77 -318 91v-448l45 -30q189 -121 255.5 -207t66.5 -210q0 -162 -98.5 -271.5t-268.5 -136.5v-163h-161z" glyph-name="dollar"/>
<glyph unicode="%" d="M1226 148q131 0 131 223q0 221 -129 221q-130 0 -130 -222t128 -222zM1224 0q-161 0 -254.5 99.5t-93.5 270.5q0 173 94 271.5t258 98.5t257.5 -98.5t93.5 -270.5q0 -175 -94 -273t-261 -98zM375 888q131 0 131 223q0 221 -129 221q-130 0 -130 -222t128 -222zM373 740 q-161 0 -254.5 99.5t-93.5 270.5q0 173 94 271.5t258 98.5q163 0 257 -98.5t94 -270.5q0 -174 -94 -272.5t-261 -98.5zM120 -37l1164 1554h200l-1163 -1554h-201z" horiz-adv-x="1604" glyph-name="percent"/>
<glyph unicode="&amp;" d="M703 977q173 92 173 221q0 134 -132 134t-132 -129q0 -87 91 -226zM538 742q-183 -83 -183 -251q0 -141 91.5 -239t223.5 -98q116 0 215 70q-165 209 -311 457zM1417 0h-348l-66 79q-175 -116 -385 -116q-239 0 -394.5 134t-155.5 340q0 306 369 458q-106 186 -106 304 q0 135 117.5 227t291.5 92q167 0 275 -88.5t108 -225.5q0 -213 -327 -365q127 -235 300 -444q101 146 101 407v23h249q0 -327 -236 -580q98 -127 207 -245z" horiz-adv-x="1525" glyph-name="ampersand"/>
<glyph unicode="&apos;" d="M161 962l-62 617h321l-74 -617h-185z" horiz-adv-x="506" glyph-name="quotesingle"/>
<glyph unicode="(" d="M660 1591v-191q-266 -268 -266 -758q0 -491 266 -759v-191q-243 131 -390 391t-147 559t144.5 555t392.5 394z" horiz-adv-x="759" glyph-name="parenleft"/>
<glyph unicode=")" d="M99 -308v191q265 268 265 756q0 493 -265 761v191q243 -130 390 -390.5t147 -559.5q0 -298 -145 -554.5t-392 -394.5z" horiz-adv-x="759" glyph-name="parenright"/>
<glyph unicode="*" d="M369 1480h216l-55 -288q-27 13 -53 13t-52 -13zM377 1082l-291 36l67 205l256 -142q-33 -36 -33 -79q0 -7 1 -20zM468 1002l-125 -266l-174 127l214 201q28 -51 85 -62zM572 1064l214 -201l-175 -127l-124 266q56 11 85 62zM545 1181l257 142l66 -205l-291 -36q2 13 2 20 q0 43 -34 79z" horiz-adv-x="955" glyph-name="asterisk"/>
<glyph unicode="+" d="M728 0v506h-506v173h506v505h173v-505h505v-173h-505v-506h-173z" horiz-adv-x="1629" glyph-name="plus"/>
<glyph unicode="," d="M216 0h-123v321h321v-249q0 -393 -321 -393v111q56 0 89.5 49t33.5 129v32z" horiz-adv-x="506" glyph-name="comma"/>
<glyph unicode="-" d="M148 543v197h888v-197h-888z" horiz-adv-x="1185" glyph-name="hyphen"/>
<glyph unicode="." d="M93 0v321h321v-321h-321z" horiz-adv-x="506" glyph-name="period"/>
<glyph unicode="/" d="M222 -296l533 1776h180l-533 -1776h-180z" horiz-adv-x="1158" glyph-name="slash"/>
<glyph unicode="0" d="M650 148q263 0 263 592t-259 592t-259 -591q0 -593 255 -593zM647 -37q-252 0 -409.5 216t-157.5 561q0 349 158 563t416 214q256 0 414.5 -213.5t158.5 -559.5q0 -355 -158.5 -568t-421.5 -213z" glyph-name="zero"/>
<glyph unicode="1" d="M266 0v173h296v1092l-296 -74v178l593 148v-1344h296v-173h-889z" glyph-name="one"/>
<glyph unicode="2" d="M126 0v234l16 22q119 159 244 268l121 107q299 264 299 463q0 109 -70 170.5t-194 61.5q-163 0 -378 -110v217q226 84 437 84q236 0 378 -111.5t142 -298.5q0 -129 -69 -235t-243 -246l-100 -80q-209 -168 -248 -312h654v-234h-989z" glyph-name="two"/>
<glyph unicode="3" d="M180 11v222q220 -85 363 -85q133 0 213.5 68t80.5 181q0 293 -429 293h-91v177l77 1q205 0 303.5 64.5t98.5 198.5q0 201 -248 201q-163 0 -348 -83v202q195 67 411 67q229 0 358.5 -94t129.5 -260q0 -262 -327 -370q374 -86 374 -400q0 -199 -150 -315t-408 -116 q-219 0 -408 48z" glyph-name="three"/>
<glyph unicode="4" d="M311 617h460v580zM765 0v395h-691v222l679 863h271v-863h173v-222h-173v-395h-259z" glyph-name="four"/>
<glyph unicode="5" d="M233 6v215q189 -73 315 -73q127 0 201.5 75.5t74.5 204.5q0 153 -118.5 235.5t-338.5 82.5q-54 0 -108 -9v743h850v-234h-634l-15 -319q320 0 499.5 -131t179.5 -366q0 -217 -157 -342t-430 -125q-116 0 -319 43z" glyph-name="five"/>
<glyph unicode="6" d="M907 444q0 151 -66.5 239t-180.5 88q-109 0 -183.5 -80t-74.5 -198q0 -155 73 -250t191 -95q110 0 175.5 80.5t65.5 215.5zM389 785q139 168 356 168q198 0 328 -130.5t130 -329.5q0 -233 -150 -381.5t-386 -148.5q-276 0 -431 196.5t-155 546.5q0 442 243 669 q153 143 429 143q150 0 372 -54v-216q-202 85 -362 85q-178 0 -276 -144t-98 -404z" glyph-name="six"/>
<glyph unicode="7" d="M285 0q21 167 82.5 293t276.5 440l348 507h-770v240h1012v-240q-291 -367 -456 -696.5t-165 -543.5h-328z" glyph-name="seven"/>
<glyph unicode="8" d="M563 694q-161 -134 -161 -283q0 -116 80.5 -191t204.5 -75q109 0 182.5 59t73.5 147q0 76 -49.5 130t-192.5 135zM741 897q148 115 148 246q0 86 -61 137.5t-161 51.5q-93 0 -150.5 -45t-57.5 -118q0 -72 57 -126.5t225 -145.5zM417 793q-214 141 -214 340 q0 172 135 278.5t354 106.5q206 0 329.5 -91t123.5 -243q0 -196 -250 -371q316 -165 316 -415q0 -195 -154 -315t-404 -120q-239 0 -385.5 110t-146.5 290q0 261 296 430z" glyph-name="eight"/>
<glyph unicode="9" d="M405 1035q0 -154 66.5 -243t180.5 -89q108 0 182 81t74 199q0 157 -72.5 253t-190.5 96q-110 0 -175 -80t-65 -217zM187 11v214q189 -77 353 -77q175 0 276.5 145.5t101.5 396.5q-141 -169 -348 -169q-195 0 -328 135t-133 333q0 231 150.5 379.5t384.5 148.5 q274 0 429.5 -195t155.5 -538q0 -439 -247 -672q-159 -149 -441 -149q-137 0 -354 48z" glyph-name="nine"/>
<glyph unicode=":" d="M105 802v296h296v-296h-296zM105 0v296h296v-296h-296z" horiz-adv-x="506" glyph-name="colon"/>
<glyph unicode=";" d="M105 802v296h296v-296h-296zM216 0h-111v296h296v-223q0 -182 -75 -281.5t-221 -112.5v111q111 32 111 179v31z" horiz-adv-x="506" glyph-name="semicolon"/>
<glyph unicode="&lt;" d="M1406 0l-1184 592l1184 592v-193l-796 -398v-2l796 -398v-193z" horiz-adv-x="1629" glyph-name="less"/>
<glyph unicode="=" d="M222 703v173h1184v-173h-1184zM222 309v172h1184v-172h-1184z" horiz-adv-x="1629" glyph-name="equal"/>
<glyph unicode="&gt;" d="M222 0v193l796 398v2l-796 398v193l1184 -592z" horiz-adv-x="1629" glyph-name="greater"/>
<glyph unicode="?" d="M576 419h-297v28q0 161 148 325l71 78q144 159 144 284q0 186 -234 186q-151 0 -346 -89v226q199 60 389 60q237 0 374.5 -91t137.5 -248q0 -144 -165 -300l-67 -64q-94 -89 -124.5 -150.5t-30.5 -159.5v-85zM279 0v247h297v-247h-297z" horiz-adv-x="1018" glyph-name="question"/>
<glyph unicode="@" d="M1011 824l38 186q-80 37 -142 37q-116 0 -188 -91q-127 -162 -127 -383q0 -123 71 -123q53 0 157 111.5t191 262.5zM1061 45q-174 -82 -349 -82q-285 0 -468.5 173.5t-183.5 441.5q0 337 244 617q131 151 314.5 236.5t375.5 85.5q281 0 469 -178.5t188 -446.5 q0 -252 -153 -424t-377 -172q-163 0 -163 109q0 47 56 230h-21q-78 -149 -190 -244t-211 -95q-179 0 -179 231q0 237 161.5 441t349.5 204q24 0 65 -6q60 -8 131 -8h134l-111 -558q-11 -52 -11 -97q0 -68 77 -68q119 0 216 138.5t97 308.5q0 215 -152.5 360.5t-376.5 145.5 q-346 0 -586 -270q-218 -245 -218 -537q0 -214 146.5 -351.5t373.5 -137.5q155 0 309 72z" horiz-adv-x="1729" glyph-name="at"/>
<glyph unicode="A" d="M477 592h460l-230 590zM23 0l576 1480h308l576 -1480h-316l-154 395h-612l-154 -395h-224z" horiz-adv-x="1508" glyph-name="A"/>
<glyph unicode="B" d="M481 210h60q194 0 267.5 41.5t73.5 151.5q0 113 -98.5 188t-248.5 75h-54v-456zM481 864h67q130 0 206.5 64t76.5 174q0 102 -61.5 138.5t-232.5 36.5h-56v-413zM185 0v1480h503q223 0 339.5 -84t116.5 -245q0 -267 -355 -378q415 -101 415 -407q0 -177 -121.5 -271.5 t-348.5 -94.5h-549z" horiz-adv-x="1290" glyph-name="B"/>
<glyph unicode="C" d="M1376 59q-215 -96 -513 -96q-364 0 -567 205t-203 572q0 374 204.5 575.5t583.5 201.5q242 0 481 -57v-241q-271 95 -454 95q-234 0 -361 -148.5t-127 -421.5q0 -268 136.5 -418t379.5 -150q218 0 440 110v-227z" horiz-adv-x="1459" glyph-name="C"/>
<glyph unicode="D" d="M493 210h230q268 0 375 151q107 150 107 392q0 212 -96 353q-66 97 -159 134t-271 37h-186v-1067zM185 0v1480h637q344 0 527 -182.5t183 -526.5q0 -366 -194 -568.5t-543 -202.5h-610z" horiz-adv-x="1624" glyph-name="D"/>
<glyph unicode="E" d="M185 0v1480h925v-203h-617v-413h506v-204h-506v-450h664v-210h-972z" horiz-adv-x="1230" glyph-name="E"/>
<glyph unicode="F" d="M185 0v1480h931v-203h-623v-450h512v-204h-512v-623h-308z" horiz-adv-x="1176" glyph-name="F"/>
<glyph unicode="G" d="M1367 35q-278 -72 -480 -72q-383 0 -588.5 201.5t-205.5 577.5q0 373 205.5 574t585.5 201q243 0 482 -57v-241q-277 95 -455 95q-235 0 -363 -150t-128 -425q0 -266 137 -417.5t378 -151.5q53 0 124 15v487h308v-637z" horiz-adv-x="1527" glyph-name="G"/>
<glyph unicode="H" d="M185 0v1480h308v-601h612v601h308v-1480h-308v675h-612v-675h-308z" horiz-adv-x="1598" glyph-name="H"/>
<glyph unicode="I" d="M185 0v1480h308v-1480h-308z" horiz-adv-x="679" glyph-name="I"/>
<glyph unicode="J" d="M-68 -260l-2 220q120 -47 247 -47q106 0 146 59t40 212v1296h309v-1263q0 -273 -111 -393t-363 -120q-126 0 -266 36z" horiz-adv-x="857" glyph-name="J"/>
<glyph unicode="K" d="M185 0v1480h296v-718l566 718h256l-513 -664l637 -816h-385l-561 728v-728h-296z" horiz-adv-x="1454" glyph-name="K"/>
<glyph unicode="L" d="M185 0v1480h308v-1270h667v-210h-975z" horiz-adv-x="1191" glyph-name="L"/>
<glyph unicode="M" d="M185 0v1480h408l356 -1041l367 1041h358v-1480h-284v1117l-361 -1018h-248l-354 1033v-1132h-242z" horiz-adv-x="1859" glyph-name="M"/>
<glyph unicode="N" d="M185 0v1480h271l686 -1011v1011h247v-1480h-276l-681 1011v-1011h-247z" horiz-adv-x="1574" glyph-name="N"/>
<glyph unicode="O" d="M838 167q198 0 313.5 155.5t115.5 421.5q0 258 -116 414t-307 156q-193 0 -308.5 -156t-115.5 -417q0 -259 115 -416.5t303 -157.5zM834 -37q-337 0 -539 212t-202 565q0 357 203 567t548 210q343 0 546.5 -210t203.5 -564q0 -362 -203.5 -571t-556.5 -209z" horiz-adv-x="1686" glyph-name="O"/>
<glyph unicode="P" d="M487 783h60q158 0 249.5 73.5t91.5 199.5q0 221 -281 221h-120v-494zM185 0v1480h516q270 0 385.5 -90.5t115.5 -302.5q0 -240 -154.5 -373.5t-432.5 -133.5h-128v-580h-302z" horiz-adv-x="1256" glyph-name="P"/>
<glyph unicode="Q" d="M839 167q197 0 312.5 155t115.5 421q0 259 -115.5 415t-307.5 156q-193 0 -308.5 -156t-115.5 -417q0 -259 115 -416.5t304 -157.5zM1589 -296q-398 105 -648 264q-73 -5 -108 -5q-336 0 -538 212t-202 565q0 357 203 567t548 210t547.5 -210.5t202.5 -569.5 q0 -504 -395 -703q291 -100 590 -132z" horiz-adv-x="1687" glyph-name="Q"/>
<glyph unicode="R" d="M475 808h71q335 0 335 271q0 198 -299 198h-107v-469zM185 0v1480h554q220 0 335.5 -93.5t115.5 -273.5q0 -137 -76.5 -249.5t-210.5 -172.5l484 -691h-375l-367 605h-170v-605h-290z" horiz-adv-x="1413" glyph-name="R"/>
<glyph unicode="S" d="M102 13v254q239 -100 409 -100q119 0 187.5 53t68.5 144q0 72 -43 121.5t-163 117.5l-99 55q-199 112 -281 214.5t-82 239.5q0 183 134.5 294t355.5 111q177 0 399 -51v-237q-227 85 -359 85q-102 0 -163.5 -45.5t-61.5 -119.5q0 -61 43 -107t162 -113l106 -59 q214 -120 295 -221t81 -246q0 -206 -153 -323t-422 -117q-178 0 -414 50z" horiz-adv-x="1170" glyph-name="S"/>
<glyph unicode="T" d="M552 0v1277h-530v203h1369v-203h-530v-1277h-309z" horiz-adv-x="1413" glyph-name="T"/>
<glyph unicode="U" d="M173 1480h308v-907q0 -215 71 -310.5t229 -95.5q151 0 218.5 91t67.5 293v929h268v-909q0 -205 -39 -312.5t-142 -186.5q-141 -109 -379 -109q-255 0 -410 116q-107 80 -149.5 189.5t-42.5 305.5v906z" horiz-adv-x="1508" glyph-name="U"/>
<glyph unicode="V" d="M572 0l-547 1480h329l424 -1145l410 1145h222l-529 -1480h-309z" horiz-adv-x="1431" glyph-name="V"/>
<glyph unicode="W" d="M390 0l-369 1480h291l270 -1083l255 1083h257l242 -1077l284 1077h213l-388 -1480h-294l-228 1015l-239 -1015h-294z" horiz-adv-x="1851" glyph-name="W"/>
<glyph unicode="X" d="M49 0l474 729l-453 751h359l301 -498l326 498h249l-454 -698l470 -782h-358l-321 529l-344 -529h-249z" horiz-adv-x="1366" glyph-name="X"/>
<glyph unicode="Y" d="M537 0v620l-497 860h340l361 -625l377 625h244l-517 -858v-622h-308z" horiz-adv-x="1406" glyph-name="Y"/>
<glyph unicode="Z" d="M106 0v210l736 1067h-694v203h1052v-203l-736 -1067h736v-210h-1094z" horiz-adv-x="1320" glyph-name="Z"/>
<glyph unicode="[" d="M197 -296v1875h463v-173h-216v-1529h216v-173h-463z" horiz-adv-x="759" glyph-name="bracketleft"/>
<glyph unicode="\" d="M935 -296h-180l-533 1776h180z" horiz-adv-x="1158" glyph-name="backslash"/>
<glyph unicode="]" d="M562 -296h-463v173h216v1529h-216v173h463v-1875z" horiz-adv-x="759" glyph-name="bracketright"/>
<glyph unicode="^" d="M1270 395h-193l-398 796h-2l-398 -796h-193l592 1184z" horiz-adv-x="1357" glyph-name="asciicircum"/>
<glyph unicode="_" d="M0 -173v173h1024v-173h-1024z" horiz-adv-x="1024" glyph-name="underscore"/>
<glyph unicode="`" d="M867 1283h-191l-321 321h271z" glyph-name="grave"/>
<glyph unicode="a" d="M723 277v223h-70q-134 0 -210.5 -48t-76.5 -132q0 -61 41.5 -102.5t102.5 -41.5q104 0 213 101zM723 118q-148 -143 -317 -143q-144 0 -234 88t-90 228q0 182 145.5 280.5t416.5 98.5h79v100q0 171 -195 171q-173 0 -350 -98v204q201 76 398 76q431 0 431 -343v-486 q0 -129 79 -129q18 0 50 11v-173q-94 -28 -166 -28q-182 0 -234 143h-13z" horiz-adv-x="1204" glyph-name="a"/>
<glyph unicode="b" d="M481 287q108 -120 230 -120q109 0 174 105.5t65 281.5q0 337 -217 337q-131 0 -252 -169v-435zM185 0v1579h296v-688q114 232 359 232q198 0 311.5 -145t113.5 -399q0 -275 -128 -439.5t-342 -164.5q-184 0 -314 136l-55 -111h-241z" horiz-adv-x="1357" glyph-name="b"/>
<glyph unicode="c" d="M995 24q-184 -49 -341 -49q-263 0 -415.5 154.5t-152.5 420.5q0 269 157 421t434 152q134 0 309 -43v-214q-182 59 -291 59q-133 0 -214 -102t-81 -271q0 -173 87.5 -277t233.5 -104q133 0 274 58v-205z" horiz-adv-x="1090" glyph-name="c"/>
<glyph unicode="d" d="M876 811q-107 120 -229 120q-109 0 -174 -105t-65 -282q0 -337 216 -337q132 0 252 169v435zM876 0v207q-114 -232 -359 -232q-198 0 -311 145t-113 399q0 276 127.5 440t342.5 164q172 0 313 -136v592h297v-1579h-297z" horiz-adv-x="1357" glyph-name="d"/>
<glyph unicode="e" d="M394 657h394q0 281 -181 281q-184 0 -213 -281zM1079 37q-211 -62 -400 -62q-275 0 -434 156t-159 426q0 255 145.5 410.5t384.5 155.5q241 0 352 -152t111 -481h-681q30 -314 345 -314q149 0 336 69v-208z" horiz-adv-x="1200" glyph-name="e"/>
<glyph unicode="f" d="M216 0v913h-151v185h151v79q0 427 405 427q131 0 270 -38v-200q-126 53 -226 53q-84 0 -118.5 -52t-34.5 -179v-90h278v-185h-278v-913h-296z" horiz-adv-x="849" glyph-name="f"/>
<glyph unicode="g" d="M876 409v405q-107 121 -224 121q-112 0 -178 -102t-66 -274q0 -322 207 -322q143 0 261 172zM193 -341l24 215q183 -84 349 -84q164 0 237 70t73 227v150q-108 -237 -357 -237q-196 0 -311 146.5t-115 396.5q0 263 129 421.5t343 158.5q168 0 311 -136l31 111h266v-838 q0 -251 -30.5 -362t-118.5 -189q-148 -128 -417 -128q-191 0 -414 78z" horiz-adv-x="1351" glyph-name="g"/>
<glyph unicode="h" d="M185 0v1579h296v-688q145 232 374 232q147 0 232 -93t85 -254v-776h-296v703q0 187 -124 187q-141 0 -271 -199v-691h-296z" horiz-adv-x="1345" glyph-name="h"/>
<glyph unicode="i" d="M185 1283v247h296v-247h-296zM185 0v1098h296v-1098h-296z" horiz-adv-x="666" glyph-name="i"/>
<glyph unicode="j" d="M201 1283v247h296v-247h-296zM-179 -373v198q129 -59 221 -59q86 0 122.5 53.5t36.5 180.5v1098h296v-1078q0 -230 -102.5 -335t-327.5 -105q-100 0 -246 47z" horiz-adv-x="682" glyph-name="j"/>
<glyph unicode="k" d="M185 0v1579h296v-993h19l391 512h246l-361 -470l474 -628h-360l-390 549h-19v-549h-296z" horiz-adv-x="1296" glyph-name="k"/>
<glyph unicode="l" d="M185 0v1579h296v-1579h-296z" horiz-adv-x="666" glyph-name="l"/>
<glyph unicode="m" d="M185 0v1098h284v-207q130 232 370 232q124 0 204 -61t98 -171q154 232 372 232q301 0 301 -332v-791h-284v694q0 195 -130 195q-133 0 -259 -192v-697h-284v694q0 196 -131 196t-257 -193v-697h-284z" horiz-adv-x="1986" glyph-name="m"/>
<glyph unicode="n" d="M185 0v1098h296v-207q145 232 374 232q147 0 232 -93t85 -254v-776h-296v703q0 187 -124 187q-141 0 -271 -199v-691h-296z" horiz-adv-x="1345" glyph-name="n"/>
<glyph unicode="o" d="M651 160q120 0 187.5 103.5t67.5 287.5q0 179 -67.5 283t-185.5 104q-117 0 -184.5 -104t-67.5 -285q0 -179 67 -284t183 -105zM646 -25q-257 0 -408.5 155.5t-151.5 418.5q0 266 152.5 420t414.5 154q263 0 415.5 -154t152.5 -418q0 -270 -153 -423t-422 -153z" glyph-name="o"/>
<glyph unicode="p" d="M481 287q108 -120 230 -120q109 0 174 105.5t65 281.5q0 337 -217 337q-131 0 -252 -169v-435zM185 -395v1493h296v-207q114 232 359 232q198 0 311.5 -145t113.5 -399q0 -276 -128 -440t-343 -164q-173 0 -313 136v-506h-296z" horiz-adv-x="1357" glyph-name="p"/>
<glyph unicode="q" d="M876 811q-107 120 -229 120q-109 0 -174 -105t-65 -282q0 -337 216 -337q132 0 252 169v435zM876 -395v602q-114 -232 -359 -232q-198 0 -311 145t-113 399q0 276 127.5 440t342.5 164q172 0 313 -136l37 111h260v-1493h-297z" horiz-adv-x="1357" glyph-name="q"/>
<glyph unicode="r" d="M185 0v1098h296v-207q115 232 350 232q28 0 55 -6v-264q-63 23 -117 23q-177 0 -288 -179v-697h-296z" horiz-adv-x="931" glyph-name="r"/>
<glyph unicode="s" d="M156 35v217q220 -92 376 -92q182 0 182 124q0 80 -150 140l-100 40q-163 66 -233 142t-70 188q0 156 119 242.5t333 86.5q134 0 319 -39v-208q-178 62 -295 62q-184 0 -184 -114q0 -75 136 -127l86 -33q193 -73 268.5 -148t75.5 -193q0 -155 -128.5 -251.5t-334.5 -96.5 q-198 0 -400 60z" horiz-adv-x="1158" glyph-name="s"/>
<glyph unicode="t" d="M751 6q-106 -31 -167 -31q-201 0 -293 86t-92 274v578h-123v185h123v185l296 34v-219h235v-185h-235v-539q0 -202 165 -202q38 0 91 14v-180z" horiz-adv-x="830" glyph-name="t"/>
<glyph unicode="u" d="M864 0v207q-144 -232 -374 -232q-147 0 -232 93t-85 254v776h296v-703q0 -187 125 -187q140 0 270 199v691h296v-1098h-296z" horiz-adv-x="1345" glyph-name="u"/>
<glyph unicode="v" d="M456 0l-419 1098h312l307 -792l305 792h214l-423 -1098h-296z" horiz-adv-x="1215" glyph-name="v"/>
<glyph unicode="w" d="M379 0l-305 1098h275l216 -769l230 769h256l207 -773l233 773h206l-326 -1098h-284l-200 753l-224 -753h-284z" horiz-adv-x="1767" glyph-name="w"/>
<glyph unicode="x" d="M68 0l377 551l-361 547h337l236 -348l226 348h240l-344 -539l369 -559h-337l-246 363l-252 -363h-245z" horiz-adv-x="1210" glyph-name="x"/>
<glyph unicode="y" d="M189 -395l249 395l-407 1098h318l272 -734l323 734h225l-678 -1493h-302z" horiz-adv-x="1194" glyph-name="y"/>
<glyph unicode="z" d="M123 0v197l614 716h-586v185h936v-185l-614 -716h626v-197h-976z" horiz-adv-x="1210" glyph-name="z"/>
<glyph unicode="{" d="M99 740h49q138 0 138 130q0 70 -19 143l-23 92q-22 89 -22 170q0 142 110 223t304 81v-173q-94 -6 -130 -33.5t-36 -94.5q0 -29 10 -90l15 -85q11 -69 11 -142q0 -205 -197 -319q197 -116 197 -320q0 -73 -11 -142l-15 -85q-10 -61 -10 -90q0 -67 36 -94.5t130 -33.5 v-173q-194 0 -304 81t-110 223q0 81 22 170l23 92q19 73 19 144q0 129 -138 129h-49v197z" horiz-adv-x="759" glyph-name="braceleft"/>
<glyph unicode="|" d="M308 -296v1875h173v-1875h-173z" horiz-adv-x="790" glyph-name="bar"/>
<glyph unicode="}" d="M636 740v-197h-50q-137 0 -137 -130q0 -70 18 -143l23 -92q23 -89 23 -170q0 -142 -110.5 -223t-303.5 -81v173q94 6 130 33.5t36 94.5q0 29 -10 90l-15 85q-11 69 -11 142q0 204 196 320q-196 114 -196 319q0 73 11 142l15 85q10 61 10 90q0 67 -36 94.5t-130 33.5v173 q194 0 304 -81t110 -223q0 -81 -23 -170l-23 -92q-18 -73 -18 -144q0 -129 137 -129h50z" horiz-adv-x="759" glyph-name="braceright"/>
<glyph unicode="~" d="M111 419q0 172 73 270t202 98q83 0 242 -82l120 -63l98 -52q34 -16 70 -16q48 0 78 47t30 122v16h173q0 -174 -72 -272t-200 -98q-86 0 -255 87l-123 63l-93 49q-30 14 -60 14q-110 0 -110 -183h-173z" glyph-name="asciitilde"/>
<glyph unicode=" " horiz-adv-x="653" glyph-name="nonbreakingspace"/>
<glyph unicode="¡" d="M420 679l49 -765v-296h-296v296l49 765h198zM469 1098v-247h-296v247h296z" horiz-adv-x="642" glyph-name="exclamdown"/>
<glyph unicode="¢" d="M680 391v740q-216 -65 -216 -364q0 -298 216 -376zM680 0v176q-250 14 -391.5 167t-141.5 409q0 259 136.5 406t396.5 169v153h160v-155q130 -9 252 -40v-216q-138 58 -252 65v-760q128 8 252 55v-202q-126 -38 -252 -47v-180h-160z" glyph-name="cent"/>
<glyph unicode="£" d="M225 0v234q110 26 153.5 88.5t43.5 193.5v181h-163v185h163v170q0 466 449 466q120 0 267 -24v-203q-120 41 -231 41q-189 0 -189 -214v-236h195v-185h-195q0 -197 -41 -284.5t-175 -178.5h651v-234h-928z" glyph-name="sterling"/>
<glyph unicode="¤" d="M656 962q-94 0 -159.5 -65t-65.5 -158q0 -91 65.5 -156t157.5 -65q91 0 156.5 65t65.5 157q0 91 -65 156.5t-155 65.5zM900 1109l199 198l122 -122l-199 -198q76 -118 76 -247q0 -128 -76 -246l198 -199l-122 -122l-198 199q-120 -76 -246 -76q-127 0 -247 76l-198 -199 l-122 122l198 199q-75 118 -75 246q0 129 75 247l-198 198l122 122l198 -198q120 75 247 75q126 0 246 -75z" glyph-name="currency"/>
<glyph unicode="¥" d="M498 0v302h-259v148h259v148h-259v148h250l-447 734h332l332 -544l353 544h220l-475 -734h250v-148h-259v-148h259v-148h-259v-302h-297z" glyph-name="yen"/>
<glyph unicode="¦" d="M308 839v740h173v-740h-173zM308 -296v740h173v-740h-173z" horiz-adv-x="790" glyph-name="brokenbar"/>
<glyph unicode="§" d="M841 375q58 79 58 146q0 65 -41.5 106t-160.5 94l-215 97q-58 -73 -58 -140q0 -117 209 -210zM197 -278v219q253 -89 419 -89q250 0 250 140q0 52 -35 83.5t-148 80.5l-154 66q-182 79 -259 163.5t-77 206.5q0 155 150 304q-156 100 -156 257q0 165 136.5 265t360.5 100 q182 0 388 -41v-205q-198 60 -363 60q-113 0 -180 -37t-67 -99q0 -84 159 -149l134 -55q206 -84 287.5 -169.5t81.5 -218.5q0 -148 -145 -306q161 -104 161 -276q0 -173 -142.5 -264.5t-411.5 -91.5q-164 0 -389 56z" glyph-name="section"/>
<glyph unicode="¨" d="M752 1283v222h222v-222h-222zM333 1283v222h222v-222h-222z" glyph-name="dieresis"/>
<glyph unicode="©" d="M851 92q317 0 504 233q153 190 153 416q0 224 -153 414q-187 233 -495 233t-495 -233q-153 -190 -153 -415q0 -264 189.5 -456t449.5 -192zM851 -37q-315 0 -541.5 229.5t-226.5 547.5q0 322 228 549.5t549 227.5t549 -227.5t228 -547.5q0 -326 -228.5 -552.5 t-557.5 -226.5zM1175 339q-150 -43 -278 -43q-205 0 -331.5 123t-126.5 323t122 318t328 118q132 0 286 -37v-132q-145 58 -267 58q-126 0 -204.5 -90.5t-78.5 -236.5q0 -144 86 -232.5t226 -88.5q138 0 238 53v-133z" horiz-adv-x="1721" glyph-name="copyright"/>
<glyph unicode="ª" d="M577 1019v113h-46q-137 0 -137 -93q0 -77 75 -77q55 0 108 57zM566 900q-76 -77 -173 -77q-91 0 -149.5 56t-58.5 143q0 230 344 230h48v47q0 94 -118 94q-112 0 -215 -60v141q120 44 248 44q294 0 294 -208v-290q0 -59 40 -59q11 0 24 3v-126q-64 -15 -111 -15 q-119 0 -160 77h-13z" horiz-adv-x="987" glyph-name="ordfeminine"/>
<glyph unicode="«" d="M641 885l-262 -336l262 -339l-139 -105l-416 444l416 444zM1098 888l-263 -339l263 -339l-139 -105l-417 444l417 444z" horiz-adv-x="1166" glyph-name="guillemotleft"/>
<glyph unicode="¬" d="M222 716v172h1184v-592h-172v420h-1012z" horiz-adv-x="1629" glyph-name="logicalnot"/>
<glyph unicode="­" d="M148 543v197h888v-197h-888z" horiz-adv-x="1186" glyph-name="uni00AD"/>
<glyph unicode="®" d="M723 780h45q217 0 217 154q0 112 -195 112h-67v-266zM551 322v840h337q282 0 282 -208q0 -167 -179 -240l247 -392h-219l-189 343h-107v-343h-172zM851 92q317 0 504 233q153 190 153 416q0 224 -153 414q-187 233 -495 233t-495 -233q-153 -190 -153 -415 q0 -264 189.5 -456t449.5 -192zM851 -37q-315 0 -541.5 229.5t-226.5 547.5q0 322 228 549.5t549 227.5t549 -227.5t228 -547.5q0 -326 -228.5 -552.5t-557.5 -226.5z" horiz-adv-x="1721" glyph-name="registered"/>
<glyph unicode="°" d="M320 1172q50 0 87 36.5t37 86.5t-37 87t-86 37q-50 0 -86.5 -37t-36.5 -87q0 -49 36.5 -86t85.5 -37zM318 1073q-90 0 -154.5 65.5t-64.5 157.5q0 93 64.5 157t157.5 64t157.5 -64t64.5 -157q0 -94 -65 -158.5t-160 -64.5z" horiz-adv-x="641" glyph-name="degree"/>
<glyph unicode="±" d="M728 296v358h-506v173h506v357h173v-357h505v-173h-505v-358h-173zM222 0v173h1184v-173h-1184z" horiz-adv-x="1629" glyph-name="plusminus"/>
<glyph unicode="²" d="M171 607v169l9 9l21 23q29 32 82 75l80 66q217 178 217 310q0 124 -153 124q-99 0 -233 -62v150q149 46 284 46q155 0 246.5 -66.5t91.5 -179.5q0 -137 -193 -287l-70 -55q-117 -90 -137 -153h398v-169h-643z" horiz-adv-x="987" glyph-name="twosuperior"/>
<glyph unicode="³" d="M195 614v150q135 -52 235 -52q162 0 162 128q0 168 -255 168h-60v127h46q128 0 185 34.5t57 111.5q0 109 -138 109q-107 0 -220 -50v134q146 43 267 43q320 0 320 -215q0 -160 -205 -222q232 -53 232 -242q0 -119 -96.5 -186t-269.5 -67q-127 0 -260 29z" horiz-adv-x="987" glyph-name="threesuperior"/>
<glyph unicode="´" d="M463 1283l241 321h271l-321 -321h-191z" glyph-name="acute"/>
<glyph unicode="µ" d="M870 210q-68 -97 -170 -153.5t-209 -56.5h-16v-296h-296v1394h296v-703q0 -187 125 -187q140 0 270 199v691h296v-1098h-296v210z" horiz-adv-x="1357" glyph-name="mu"/>
<glyph unicode="¶" d="M543 -296v1036q-395 53 -395 410q0 177 96 253.5t317 76.5h451v-1776h-161v1641h-148v-1641h-160z" glyph-name="paragraph"/>
<glyph unicode="¸" d="M621 0h136l-76 -113q232 -25 232 -156q0 -69 -72 -116t-177 -47q-82 0 -188 29v92q70 -15 117 -15q122 0 122 60q0 84 -195 84h-20z" glyph-name="cedilla"/>
<glyph unicode="¹" d="M197 615v130h222v583l-222 -55v133l444 111v-772h221v-130h-665z" horiz-adv-x="987" glyph-name="onesuperior"/>
<glyph unicode="º" d="M492 951q128 0 128 221q0 97 -35 157.5t-91 60.5q-57 0 -92 -60.5t-35 -159.5q0 -97 34.5 -158t90.5 -61zM489 823q-165 0 -261.5 93.5t-96.5 253.5q0 162 97 254.5t266 92.5q168 0 265 -92.5t97 -253.5q0 -164 -97 -256t-270 -92z" horiz-adv-x="987" glyph-name="ordmasculine"/>
<glyph unicode="»" d="M524 213l263 336l-263 339l139 105l417 -444l-417 -444zM68 210l262 339l-262 339l139 105l416 -444l-416 -444z" horiz-adv-x="1166" glyph-name="guillemotright"/>
<glyph unicode="¼" d="M323 615v713l-222 -55v133l444 111v-902h-222zM284 -37l1108 1554h172l-1107 -1554h-173zM1208 394h254v304zM1461 2v226h-420v166l413 496h201v-496h93v-166h-93v-226h-194z" horiz-adv-x="1946" glyph-name="onequarter"/>
<glyph unicode="½" d="M309 615v713l-222 -55v133l444 111v-902h-222zM202 -37l1108 1554h172l-1107 -1554h-173zM1103 2v169l9 9l21 23q29 32 82 75l80 66q217 178 217 310q0 124 -153 124q-99 0 -233 -62v150q149 46 284 46q155 0 246.5 -66.5t91.5 -179.5q0 -137 -193 -287l-70 -55 q-117 -90 -137 -153h398v-169h-643z" horiz-adv-x="1946" glyph-name="onehalf"/>
<glyph unicode="¾" d="M161 614v150q135 -52 235 -52q162 0 162 128q0 168 -255 168h-60v127h46q128 0 185 34.5t57 111.5q0 109 -138 109q-107 0 -220 -50v134q146 43 267 43q320 0 320 -215q0 -160 -205 -222q232 -53 232 -242q0 -119 -96.5 -186t-269.5 -67q-127 0 -260 29zM383 -37 l1108 1554h172l-1107 -1554h-173zM1245 394h254v304zM1498 2v226h-420v166l413 496h201v-496h93v-166h-93v-226h-194z" horiz-adv-x="1946" glyph-name="threequarters"/>
<glyph unicode="¿" d="M443 679h296v-28q0 -162 -148 -325l-70 -78q-144 -159 -144 -284q0 -186 234 -186q151 0 346 89v-226q-200 -60 -390 -60q-237 0 -374 91t-137 248q0 144 164 300l68 64q93 89 124 150.5t31 159.5v85zM739 1098v-247h-296v247h296z" horiz-adv-x="1018" glyph-name="questiondown"/>
<glyph unicode="À" d="M477 592h460l-230 590zM23 0l576 1480h308l576 -1480h-316l-154 395h-612l-154 -395h-224zM945 1605h-191l-321 321h271z" horiz-adv-x="1508" glyph-name="Agrave"/>
<glyph unicode="Á" d="M477 592h460l-230 590zM23 0l576 1480h308l576 -1480h-316l-154 395h-612l-154 -395h-224zM561 1605l241 321h271l-321 -321h-191z" horiz-adv-x="1508" glyph-name="Aacute"/>
<glyph unicode="Â" d="M376 1605l241 321h273l241 -321h-179l-198 197h-2l-197 -197h-179zM477 592h460l-230 590zM23 0l576 1480h308l576 -1480h-316l-154 395h-612l-154 -395h-224z" horiz-adv-x="1508" glyph-name="Acircumflex"/>
<glyph unicode="Ã" d="M548 1605h-148q0 321 201 321q65 0 127 -43l38 -26l31 -22q64 -45 91 -45q67 0 67 136h148q0 -321 -201 -321q-65 0 -126 43l-39 26q-24 17 -31 22q-61 45 -91 45q-67 0 -67 -136zM477 592h460l-230 590zM23 0l576 1480h308l576 -1480h-316l-154 395h-612l-154 -395h-224 z" horiz-adv-x="1508" glyph-name="Atilde"/>
<glyph unicode="Ä" d="M477 592h460l-230 590zM23 0l576 1480h308l576 -1480h-316l-154 395h-612l-154 -395h-224zM850 1605v222h222v-222h-222zM431 1605v222h222v-222h-222z" horiz-adv-x="1508" glyph-name="Adieresis"/>
<glyph unicode="Å" d="M477 592h460l-230 590zM23 0l576 1480h308l576 -1480h-316l-154 395h-612l-154 -395h-224zM750 1581q55 0 92.5 37t37.5 92q0 53 -37.5 90t-90.5 37t-90.5 -37t-37.5 -91q0 -53 37 -90.5t89 -37.5zM749 1482q-93 0 -158.5 66.5t-65.5 160.5t66 160.5t161 66.5 q94 0 160.5 -66t66.5 -161q0 -96 -66.5 -161.5t-163.5 -65.5z" horiz-adv-x="1508" glyph-name="Aring"/>
<glyph unicode="Æ" d="M586 574h330v580zM21 0l839 1480h982v-203h-623v-413h512v-204h-512v-450h669v-210h-972v382h-437l-218 -382h-240z" horiz-adv-x="1961" glyph-name="AE"/>
<glyph unicode="Ç" d="M1376 59q-215 -96 -513 -96q-364 0 -567 205t-203 572q0 374 204.5 575.5t583.5 201.5q242 0 481 -57v-241q-271 95 -454 95q-234 0 -361 -148.5t-127 -421.5q0 -268 136.5 -418t379.5 -150q218 0 440 110v-227zM758 0h136l-76 -113q232 -25 232 -156q0 -69 -72 -116 t-177 -47q-82 0 -188 29v92q70 -15 117 -15q122 0 122 60q0 84 -195 84h-20z" horiz-adv-x="1459" glyph-name="Ccedilla"/>
<glyph unicode="È" d="M185 0v1480h925v-203h-617v-413h506v-204h-506v-450h664v-210h-972zM852 1605h-191l-321 321h271z" horiz-adv-x="1230" glyph-name="Egrave"/>
<glyph unicode="É" d="M185 0v1480h925v-203h-617v-413h506v-204h-506v-450h664v-210h-972zM494 1605l241 321h271l-321 -321h-191z" horiz-adv-x="1230" glyph-name="Eacute"/>
<glyph unicode="Ê" d="M284 1605l241 321h273l241 -321h-179l-198 197h-2l-197 -197h-179zM185 0v1480h925v-203h-617v-413h506v-204h-506v-450h664v-210h-972z" horiz-adv-x="1230" glyph-name="Ecircumflex"/>
<glyph unicode="Ë" d="M185 0v1480h925v-203h-617v-413h506v-204h-506v-450h664v-210h-972zM764 1605v222h222v-222h-222zM345 1605v222h222v-222h-222z" horiz-adv-x="1230" glyph-name="Edieresis"/>
<glyph unicode="Ì" d="M185 0v1480h308v-1480h-308zM530 1605h-191l-321 321h271z" horiz-adv-x="678" glyph-name="Igrave"/>
<glyph unicode="Í" d="M185 0v1480h308v-1480h-308zM149 1605l241 321h271l-321 -321h-191z" horiz-adv-x="678" glyph-name="Iacute"/>
<glyph unicode="Î" d="M-36 1605l241 321h273l241 -321h-179l-198 197h-2l-197 -197h-179zM185 0v1480h308v-1480h-308z" horiz-adv-x="678" glyph-name="Icircumflex"/>
<glyph unicode="Ï" d="M185 0v1480h308v-1480h-308zM438 1605v222h222v-222h-222zM19 1605v222h222v-222h-222z" horiz-adv-x="678" glyph-name="Idieresis"/>
<glyph unicode="Ð" d="M493 210h230q268 0 375 151q107 150 107 392q0 212 -96 353q-66 97 -159 134t-271 37h-186v-435h210v-197h-210v-435zM185 0v645h-185v197h185v638h637q344 0 527 -182.5t183 -526.5q0 -366 -194 -568.5t-543 -202.5h-610z" horiz-adv-x="1624" glyph-name="Eth"/>
<glyph unicode="Ñ" d="M604 1605h-148q0 321 201 321q65 0 127 -43l38 -26l31 -22q64 -45 91 -45q67 0 67 136h148q0 -321 -201 -321q-65 0 -126 43l-39 26q-24 17 -31 22q-61 45 -91 45q-67 0 -67 -136zM185 0v1480h271l686 -1011v1011h247v-1480h-276l-681 1011v-1011h-247z" horiz-adv-x="1574" glyph-name="Ntilde"/>
<glyph unicode="Ò" d="M838 167q198 0 313.5 155.5t115.5 421.5q0 258 -116 414t-307 156q-193 0 -308.5 -156t-115.5 -417q0 -259 115 -416.5t303 -157.5zM834 -37q-337 0 -539 212t-202 565q0 357 203 567t548 210q343 0 546.5 -210t203.5 -564q0 -362 -203.5 -571t-556.5 -209zM1035 1605 h-191l-321 321h271z" horiz-adv-x="1686" glyph-name="Ograve"/>
<glyph unicode="Ó" d="M838 167q198 0 313.5 155.5t115.5 421.5q0 258 -116 414t-307 156q-193 0 -308.5 -156t-115.5 -417q0 -259 115 -416.5t303 -157.5zM834 -37q-337 0 -539 212t-202 565q0 357 203 567t548 210q343 0 546.5 -210t203.5 -564q0 -362 -203.5 -571t-556.5 -209zM651 1605 l241 321h271l-321 -321h-191z" horiz-adv-x="1686" glyph-name="Oacute"/>
<glyph unicode="Ô" d="M466 1605l241 321h273l241 -321h-179l-198 197h-2l-197 -197h-179zM838 167q198 0 313.5 155.5t115.5 421.5q0 258 -116 414t-307 156q-193 0 -308.5 -156t-115.5 -417q0 -259 115 -416.5t303 -157.5zM834 -37q-337 0 -539 212t-202 565q0 357 203 567t548 210 q343 0 546.5 -210t203.5 -564q0 -362 -203.5 -571t-556.5 -209z" horiz-adv-x="1686" glyph-name="Ocircumflex"/>
<glyph unicode="Õ" d="M640 1605h-148q0 321 201 321q65 0 127 -43l38 -26l31 -22q64 -45 91 -45q67 0 67 136h148q0 -321 -201 -321q-65 0 -126 43l-39 26q-24 17 -31 22q-61 45 -91 45q-67 0 -67 -136zM838 167q198 0 313.5 155.5t115.5 421.5q0 258 -116 414t-307 156q-193 0 -308.5 -156 t-115.5 -417q0 -259 115 -416.5t303 -157.5zM834 -37q-337 0 -539 212t-202 565q0 357 203 567t548 210q343 0 546.5 -210t203.5 -564q0 -362 -203.5 -571t-556.5 -209z" horiz-adv-x="1686" glyph-name="Otilde"/>
<glyph unicode="Ö" d="M838 167q198 0 313.5 155.5t115.5 421.5q0 258 -116 414t-307 156q-193 0 -308.5 -156t-115.5 -417q0 -259 115 -416.5t303 -157.5zM834 -37q-337 0 -539 212t-202 565q0 357 203 567t548 210q343 0 546.5 -210t203.5 -564q0 -362 -203.5 -571t-556.5 -209zM942 1605v222 h222v-222h-222zM523 1605v222h222v-222h-222z" horiz-adv-x="1686" glyph-name="Odieresis"/>
<glyph unicode="×" d="M222 122l470 470l-470 470l122 122l470 -470l470 470l122 -122l-470 -470l470 -470l-122 -122l-470 470l-470 -470z" horiz-adv-x="1629" glyph-name="multiply"/>
<glyph unicode="Ø" d="M559 290q109 -123 283 -123q192 0 307.5 156.5t115.5 418.5q0 165 -60 315zM91 -37l188 224q-188 216 -188 555q0 355 203 565t547 210q258 0 451 -126l107 126h193l-189 -224q189 -213 189 -555q0 -355 -203.5 -565t-546.5 -210q-256 0 -451 127l-107 -127h-193z M478 424l646 766q-108 124 -283 124q-192 0 -307.5 -156.5t-115.5 -416.5q0 -165 60 -317z" horiz-adv-x="1686" glyph-name="Oslash"/>
<glyph unicode="Ù" d="M173 1480h308v-907q0 -215 71 -310.5t229 -95.5q151 0 218.5 91t67.5 293v929h268v-909q0 -205 -39 -312.5t-142 -186.5q-141 -109 -379 -109q-255 0 -410 116q-107 80 -149.5 189.5t-42.5 305.5v906zM973 1605h-191l-321 321h271z" horiz-adv-x="1508" glyph-name="Ugrave"/>
<glyph unicode="Ú" d="M173 1480h308v-907q0 -215 71 -310.5t229 -95.5q151 0 218.5 91t67.5 293v929h268v-909q0 -205 -39 -312.5t-142 -186.5q-141 -109 -379 -109q-255 0 -410 116q-107 80 -149.5 189.5t-42.5 305.5v906zM590 1605l241 321h271l-321 -321h-191z" horiz-adv-x="1508" glyph-name="Uacute"/>
<glyph unicode="Û" d="M397 1605l241 321h273l241 -321h-179l-198 197h-2l-197 -197h-179zM173 1480h308v-907q0 -215 71 -310.5t229 -95.5q151 0 218.5 91t67.5 293v929h268v-909q0 -205 -39 -312.5t-142 -186.5q-141 -109 -379 -109q-255 0 -410 116q-107 80 -149.5 189.5t-42.5 305.5v906z " horiz-adv-x="1508" glyph-name="Ucircumflex"/>
<glyph unicode="Ü" d="M173 1480h308v-907q0 -215 71 -310.5t229 -95.5q151 0 218.5 91t67.5 293v929h268v-909q0 -205 -39 -312.5t-142 -186.5q-141 -109 -379 -109q-255 0 -410 116q-107 80 -149.5 189.5t-42.5 305.5v906zM873 1605v222h222v-222h-222zM454 1605v222h222v-222h-222z" horiz-adv-x="1508" glyph-name="Udieresis"/>
<glyph unicode="Ý" d="M537 0v620l-497 860h340l361 -625l377 625h244l-517 -858v-622h-308zM549 1605l241 321h271l-321 -321h-191z" horiz-adv-x="1406" glyph-name="Yacute"/>
<glyph unicode="Þ" d="M481 500h74q154 0 240.5 74t86.5 206q0 213 -280 213h-121v-493zM185 0v1480h296v-283h214q270 0 385.5 -91t115.5 -301q0 -241 -155 -375t-432 -134h-128v-296h-296z" horiz-adv-x="1256" glyph-name="Thorn"/>
<glyph unicode="ß" d="M185 0v1131q0 473 447 473q194 0 307.5 -70.5t113.5 -190.5q0 -97 -65 -188l-61 -86q-70 -98 -70 -141q0 -63 105 -150l137 -112q119 -98 166 -175.5t47 -176.5q0 -155 -103.5 -247t-277.5 -92q-141 0 -303 54v206q155 -75 267 -75q68 0 110 34.5t42 89.5q0 64 -122 165 l-148 123q-161 134 -161 256q0 74 38 144l47 81l49 87q43 74 43 144q0 138 -156 138t-156 -213v-1209h-296z" horiz-adv-x="1354" glyph-name="germandbls"/>
<glyph unicode="à" d="M723 277v223h-70q-134 0 -210.5 -48t-76.5 -132q0 -61 41.5 -102.5t102.5 -41.5q104 0 213 101zM723 118q-148 -143 -317 -143q-144 0 -234 88t-90 228q0 182 145.5 280.5t416.5 98.5h79v100q0 171 -195 171q-173 0 -350 -98v204q201 76 398 76q431 0 431 -343v-486 q0 -129 79 -129q18 0 50 11v-173q-94 -28 -166 -28q-182 0 -234 143h-13zM782 1283h-191l-321 321h271z" horiz-adv-x="1204" glyph-name="agrave"/>
<glyph unicode="á" d="M723 277v223h-70q-134 0 -210.5 -48t-76.5 -132q0 -61 41.5 -102.5t102.5 -41.5q104 0 213 101zM723 118q-148 -143 -317 -143q-144 0 -234 88t-90 228q0 182 145.5 280.5t416.5 98.5h79v100q0 171 -195 171q-173 0 -350 -98v204q201 76 398 76q431 0 431 -343v-486 q0 -129 79 -129q18 0 50 11v-173q-94 -28 -166 -28q-182 0 -234 143h-13zM398 1283l241 321h271l-321 -321h-191z" horiz-adv-x="1204" glyph-name="aacute"/>
<glyph unicode="â" d="M218 1283l241 321h273l241 -321h-179l-198 197h-2l-197 -197h-179zM723 277v223h-70q-134 0 -210.5 -48t-76.5 -132q0 -61 41.5 -102.5t102.5 -41.5q104 0 213 101zM723 118q-148 -143 -317 -143q-144 0 -234 88t-90 228q0 182 145.5 280.5t416.5 98.5h79v100 q0 171 -195 171q-173 0 -350 -98v204q201 76 398 76q431 0 431 -343v-486q0 -129 79 -129q18 0 50 11v-173q-94 -28 -166 -28q-182 0 -234 143h-13z" horiz-adv-x="1204" glyph-name="acircumflex"/>
<glyph unicode="ã" d="M365 1283h-148q0 321 201 321q65 0 127 -43l38 -26l31 -22q64 -45 91 -45q67 0 67 136h148q0 -321 -201 -321q-65 0 -126 43l-39 26q-24 17 -31 22q-61 45 -91 45q-67 0 -67 -136zM723 277v223h-70q-134 0 -210.5 -48t-76.5 -132q0 -61 41.5 -102.5t102.5 -41.5 q104 0 213 101zM723 118q-148 -143 -317 -143q-144 0 -234 88t-90 228q0 182 145.5 280.5t416.5 98.5h79v100q0 171 -195 171q-173 0 -350 -98v204q201 76 398 76q431 0 431 -343v-486q0 -129 79 -129q18 0 50 11v-173q-94 -28 -166 -28q-182 0 -234 143h-13z" horiz-adv-x="1204" glyph-name="atilde"/>
<glyph unicode="ä" d="M723 277v223h-70q-134 0 -210.5 -48t-76.5 -132q0 -61 41.5 -102.5t102.5 -41.5q104 0 213 101zM723 118q-148 -143 -317 -143q-144 0 -234 88t-90 228q0 182 145.5 280.5t416.5 98.5h79v100q0 171 -195 171q-173 0 -350 -98v204q201 76 398 76q431 0 431 -343v-486 q0 -129 79 -129q18 0 50 11v-173q-94 -28 -166 -28q-182 0 -234 143h-13zM687 1283v222h222v-222h-222zM268 1283v222h222v-222h-222z" horiz-adv-x="1204" glyph-name="adieresis"/>
<glyph unicode="å" d="M723 277v223h-70q-134 0 -210.5 -48t-76.5 -132q0 -61 41.5 -102.5t102.5 -41.5q104 0 213 101zM723 118q-148 -143 -317 -143q-144 0 -234 88t-90 228q0 182 145.5 280.5t416.5 98.5h79v100q0 171 -195 171q-173 0 -350 -98v204q201 76 398 76q431 0 431 -343v-486 q0 -129 79 -129q18 0 50 11v-173q-94 -28 -166 -28q-182 0 -234 143h-13zM587 1382q55 0 92.5 37t37.5 92q0 53 -37.5 90t-90.5 37t-90.5 -37t-37.5 -91q0 -53 37 -90.5t89 -37.5zM586 1283q-93 0 -158.5 66.5t-65.5 160.5t66 160.5t161 66.5q94 0 160.5 -66t66.5 -161 q0 -96 -66.5 -161.5t-163.5 -65.5z" horiz-adv-x="1204" glyph-name="aring"/>
<glyph unicode="æ" d="M1004 657h393q0 284 -180 284q-185 0 -213 -284zM723 277v223h-70q-132 0 -209.5 -48.5t-77.5 -131.5q0 -61 41.5 -102.5t102.5 -41.5q103 0 213 101zM801 192q-153 -217 -389 -217q-148 0 -239 87t-91 229q0 181 145.5 278t416.5 97h79v104q0 171 -195 171 q-173 0 -350 -98v204q201 76 392 76q173 0 333 -121q151 121 331 121q233 0 343.5 -154t110.5 -479h-681q31 -314 346 -314q148 0 335 69v-208q-210 -62 -419 -62q-165 0 -270.5 49t-197.5 168z" horiz-adv-x="1808" glyph-name="ae"/>
<glyph unicode="ç" d="M995 24q-184 -49 -341 -49q-263 0 -415.5 154.5t-152.5 420.5q0 269 157 421t434 152q134 0 309 -43v-214q-182 59 -291 59q-133 0 -214 -102t-81 -271q0 -173 87.5 -277t233.5 -104q133 0 274 58v-205zM552 0h136l-76 -113q232 -25 232 -156q0 -69 -72 -116t-177 -47 q-82 0 -188 29v92q70 -15 117 -15q122 0 122 60q0 84 -195 84h-20z" horiz-adv-x="1090" glyph-name="ccedilla"/>
<glyph unicode="è" d="M394 657h394q0 281 -181 281q-184 0 -213 -281zM1079 37q-211 -62 -400 -62q-275 0 -434 156t-159 426q0 255 145.5 410.5t384.5 155.5q241 0 352 -152t111 -481h-681q30 -314 345 -314q149 0 336 69v-208zM802 1283h-191l-321 321h271z" horiz-adv-x="1200" glyph-name="egrave"/>
<glyph unicode="é" d="M394 657h394q0 281 -181 281q-184 0 -213 -281zM1079 37q-211 -62 -400 -62q-275 0 -434 156t-159 426q0 255 145.5 410.5t384.5 155.5q241 0 352 -152t111 -481h-681q30 -314 345 -314q149 0 336 69v-208zM421 1283l241 321h271l-321 -321h-191z" horiz-adv-x="1200" glyph-name="eacute"/>
<glyph unicode="ê" d="M234 1283l241 321h273l241 -321h-179l-198 197h-2l-197 -197h-179zM394 657h394q0 281 -181 281q-184 0 -213 -281zM1079 37q-211 -62 -400 -62q-275 0 -434 156t-159 426q0 255 145.5 410.5t384.5 155.5q241 0 352 -152t111 -481h-681q30 -314 345 -314q149 0 336 69 v-208z" horiz-adv-x="1200" glyph-name="ecircumflex"/>
<glyph unicode="ë" d="M394 657h394q0 281 -181 281q-184 0 -213 -281zM1079 37q-211 -62 -400 -62q-275 0 -434 156t-159 426q0 255 145.5 410.5t384.5 155.5q241 0 352 -152t111 -481h-681q30 -314 345 -314q149 0 336 69v-208zM710 1283v222h222v-222h-222zM291 1283v222h222v-222h-222z" horiz-adv-x="1200" glyph-name="edieresis"/>
<glyph unicode="ì" d="M185 0v1098h296v-1098h-296zM526 1283h-191l-321 321h271z" horiz-adv-x="666" glyph-name="igrave"/>
<glyph unicode="í" d="M185 0v1098h296v-1098h-296zM142 1283l241 321h271l-321 -321h-191z" horiz-adv-x="666" glyph-name="iacute"/>
<glyph unicode="î" d="M-42 1283l241 321h273l241 -321h-179l-198 197h-2l-197 -197h-179zM185 0v1098h296v-1098h-296z" horiz-adv-x="666" glyph-name="icircumflex"/>
<glyph unicode="ï" d="M185 0v1098h296v-1098h-296zM431 1283v222h222v-222h-222zM12 1283v222h222v-222h-222z" horiz-adv-x="666" glyph-name="idieresis"/>
<glyph unicode="ð" d="M658 160q119 0 188.5 104.5t69.5 281.5q0 343 -252 343q-117 0 -186 -99t-69 -267q0 -165 67.5 -264t181.5 -99zM297 1066l-109 130l190 158q-135 39 -252 39l-33 1v185q248 0 464 -75l220 188l111 -133l-161 -138q226 -124 356 -345.5t130 -482.5q0 -277 -155.5 -447.5 t-406.5 -170.5q-249 0 -402 152.5t-153 398.5q0 237 147.5 392t373.5 155q59 0 140 -18q-67 128 -210 214z" horiz-adv-x="1310" glyph-name="eth"/>
<glyph unicode="ñ" d="M468 1283h-148q0 321 201 321q65 0 127 -43l38 -26l31 -22q64 -45 91 -45q67 0 67 136h148q0 -321 -201 -321q-65 0 -126 43l-39 26q-24 17 -31 22q-61 45 -91 45q-67 0 -67 -136zM185 0v1098h296v-207q145 232 374 232q147 0 232 -93t85 -254v-776h-296v703 q0 187 -124 187q-141 0 -271 -199v-691h-296z" horiz-adv-x="1345" glyph-name="ntilde"/>
<glyph unicode="ò" d="M651 160q120 0 187.5 103.5t67.5 287.5q0 179 -67.5 283t-185.5 104q-117 0 -184.5 -104t-67.5 -285q0 -179 67 -284t183 -105zM646 -25q-257 0 -408.5 155.5t-151.5 418.5q0 266 152.5 420t414.5 154q263 0 415.5 -154t152.5 -418q0 -270 -153 -423t-422 -153zM845 1283 h-191l-321 321h271z" glyph-name="ograve"/>
<glyph unicode="ó" d="M651 160q120 0 187.5 103.5t67.5 287.5q0 179 -67.5 283t-185.5 104q-117 0 -184.5 -104t-67.5 -285q0 -179 67 -284t183 -105zM646 -25q-257 0 -408.5 155.5t-151.5 418.5q0 266 152.5 420t414.5 154q263 0 415.5 -154t152.5 -418q0 -270 -153 -423t-422 -153zM463 1283 l241 321h271l-321 -321h-191z" glyph-name="oacute"/>
<glyph unicode="ô" d="M276 1283l241 321h273l241 -321h-179l-198 197h-2l-197 -197h-179zM651 160q120 0 187.5 103.5t67.5 287.5q0 179 -67.5 283t-185.5 104q-117 0 -184.5 -104t-67.5 -285q0 -179 67 -284t183 -105zM646 -25q-257 0 -408.5 155.5t-151.5 418.5q0 266 152.5 420t414.5 154 q263 0 415.5 -154t152.5 -418q0 -270 -153 -423t-422 -153z" glyph-name="ocircumflex"/>
<glyph unicode="õ" d="M450 1283h-148q0 321 201 321q65 0 127 -43l38 -26l31 -22q64 -45 91 -45q67 0 67 136h148q0 -321 -201 -321q-65 0 -126 43l-39 26q-24 17 -31 22q-61 45 -91 45q-67 0 -67 -136zM651 160q120 0 187.5 103.5t67.5 287.5q0 179 -67.5 283t-185.5 104q-117 0 -184.5 -104 t-67.5 -285q0 -179 67 -284t183 -105zM646 -25q-257 0 -408.5 155.5t-151.5 418.5q0 266 152.5 420t414.5 154q263 0 415.5 -154t152.5 -418q0 -270 -153 -423t-422 -153z" glyph-name="otilde"/>
<glyph unicode="ö" d="M651 160q120 0 187.5 103.5t67.5 287.5q0 179 -67.5 283t-185.5 104q-117 0 -184.5 -104t-67.5 -285q0 -179 67 -284t183 -105zM646 -25q-257 0 -408.5 155.5t-151.5 418.5q0 266 152.5 420t414.5 154q263 0 415.5 -154t152.5 -418q0 -270 -153 -423t-422 -153zM752 1283 v222h222v-222h-222zM333 1283v222h222v-222h-222z" glyph-name="odieresis"/>
<glyph unicode="÷" d="M691 0v247h247v-247h-247zM691 938v246h247v-246h-247zM222 506v173h1184v-173h-1184z" horiz-adv-x="1629" glyph-name="divide"/>
<glyph unicode="ø" d="M824 857q-64 81 -169 81q-117 0 -184.5 -104t-67.5 -284q0 -87 21 -173zM486 240q66 -80 170 -80q117 0 184.5 104t67.5 284q0 86 -21 173zM332 56l-67 -81h-177l139 167q-139 164 -139 408q0 265 152.5 419t414.5 154q182 0 324 -80l67 80h177l-139 -167 q139 -162 139 -408q0 -265 -152.5 -419t-413.5 -154q-186 0 -325 81z" glyph-name="oslash"/>
<glyph unicode="ù" d="M864 0v207q-144 -232 -374 -232q-147 0 -232 93t-85 254v776h296v-703q0 -187 125 -187q140 0 270 199v691h296v-1098h-296zM860 1283h-191l-321 321h271z" horiz-adv-x="1345" glyph-name="ugrave"/>
<glyph unicode="ú" d="M864 0v207q-144 -232 -374 -232q-147 0 -232 93t-85 254v776h296v-703q0 -187 125 -187q140 0 270 199v691h296v-1098h-296zM475 1283l241 321h271l-321 -321h-191z" horiz-adv-x="1345" glyph-name="uacute"/>
<glyph unicode="û" d="M288 1283l241 321h273l241 -321h-179l-198 197h-2l-197 -197h-179zM864 0v207q-144 -232 -374 -232q-147 0 -232 93t-85 254v776h296v-703q0 -187 125 -187q140 0 270 199v691h296v-1098h-296z" horiz-adv-x="1345" glyph-name="ucircumflex"/>
<glyph unicode="ü" d="M864 0v207q-144 -232 -374 -232q-147 0 -232 93t-85 254v776h296v-703q0 -187 125 -187q140 0 270 199v691h296v-1098h-296zM764 1283v222h222v-222h-222zM345 1283v222h222v-222h-222z" horiz-adv-x="1345" glyph-name="udieresis"/>
<glyph unicode="ý" d="M189 -395l249 395l-407 1098h318l272 -734l323 734h225l-678 -1493h-302zM431 1283l241 321h271l-321 -321h-191z" horiz-adv-x="1194" glyph-name="yacute"/>
<glyph unicode="þ" d="M481 287q108 -120 230 -120q109 0 174 105.5t65 281.5q0 337 -217 337q-131 0 -252 -169v-435zM185 -395v1974h296v-688q114 232 359 232q198 0 311.5 -145t113.5 -399q0 -276 -128 -440t-343 -164q-173 0 -313 136v-506h-296z" horiz-adv-x="1357" glyph-name="thorn"/>
<glyph unicode="ı" d="M185 0v1098h296v-1098h-296z" horiz-adv-x="666" glyph-name="dotlessi"/>
<glyph unicode="˚" d="M652 1382q55 0 92.5 37t37.5 92q0 53 -37.5 90t-90.5 37t-90.5 -37t-37.5 -91q0 -53 37 -90.5t89 -37.5zM651 1283q-93 0 -158.5 66.5t-65.5 160.5t66 160.5t161 66.5q94 0 160.5 -66t66.5 -161q0 -96 -66.5 -161.5t-163.5 -65.5z" glyph-name="ring"/>
<glyph unicode="ⁱ" d="M412 615v713l-222 -55v133l444 111v-902h-222z" horiz-adv-x="987" glyph-name="uni2071"/>
<glyph unicode="⁴" d="M315 999h254v304zM568 607v226h-420v166l413 496h201v-496h93v-166h-93v-226h-194z" horiz-adv-x="987" glyph-name="uni2074"/>
<glyph unicode="∕" d="M-541 -37l1108 1554h172l-1107 -1554h-173z" horiz-adv-x="197" glyph-name="fraction"/>
</font>
</defs>
</svg>
